<?xml version="1.0" standalone="no"?>
<!DOCTYPE svg PUBLIC "-//W3C//DTD SVG 20010904//EN"
 "http://www.w3.org/TR/2001/REC-SVG-20010904/DTD/svg10.dtd">
<svg version="1.0" xmlns="http://www.w3.org/2000/svg"
 width="291.000000pt" height="300.000000pt" viewBox="0 0 291.000000 300.000000"
 preserveAspectRatio="xMidYMid meet">
<metadata>
Created by potrace 1.16, written by Peter Selinger 2001-2019
</metadata>
<g transform="translate(0.000000,300.000000) scale(0.100000,-0.100000)"
fill="#000000" stroke="none">
<path d="M1376 2991 c-3 -5 -26 -12 -51 -16 -185 -27 -485 -165 -675 -309 -62
-47 -77 -55 -64 -33 34 55 -271 -248 -315 -313 -17 -25 -13 -23 15 10 63 74
216 230 259 263 22 17 -5 -12 -60 -65 -55 -52 -126 -126 -157 -164 -70 -85
-96 -115 -83 -94 9 13 8 13 -7 1 -10 -7 -15 -17 -13 -21 7 -12 -74 -136 -87
-132 -5 1 -7 -2 -3 -7 3 -6 -8 -36 -24 -69 -16 -32 -44 -100 -62 -152 -17 -52
-36 -99 -41 -104 -4 -6 -8 -47 -8 -92 0 -64 3 -83 15 -88 8 -3 14 -11 13 -18
-2 -8 9 -14 27 -15 l30 -2 -30 9 -30 8 28 1 c16 0 38 6 50 12 21 10 21 10 3
-5 -11 -9 -15 -16 -9 -16 6 0 16 7 23 15 7 8 9 15 5 15 -4 0 -2 7 5 15 7 8 16
13 20 10 5 -3 17 7 28 22 24 35 38 65 18 38 -8 -11 -22 -29 -31 -40 -8 -11 5
18 29 65 24 47 54 113 66 147 13 35 26 60 31 57 5 -3 6 1 3 9 -6 17 72 199
115 265 17 27 41 58 54 70 33 32 90 39 123 17 24 -15 26 -22 21 -62 -4 -40
-13 -54 -66 -107 -34 -33 -61 -57 -61 -52 0 4 24 31 53 58 l52 50 -53 -42
c-28 -24 -52 -44 -53 -44 0 -1 -3 -28 -6 -61 -3 -33 -7 -62 -10 -65 -3 -3 -4
16 -2 42 2 26 0 43 -4 39 -15 -15 -4 -86 13 -86 8 0 15 -8 15 -17 0 -9 4 -20
9 -25 5 -4 7 -3 3 2 -3 6 10 10 33 10 23 0 36 -4 33 -10 -4 -5 -2 -6 3 -2 5 5
9 14 9 19 0 6 6 13 14 16 8 3 11 0 7 -7 -11 -17 0 -13 15 6 10 11 10 14 2 9
-29 -17 -9 13 48 74 l61 65 -52 -62 c-89 -107 -48 -69 65 60 59 67 79 93 46
57 -34 -35 -61 -60 -61 -54 0 12 151 160 220 215 131 105 315 205 359 195 16
-4 21 -3 13 2 -20 14 84 39 273 67 94 14 192 32 220 40 27 9 55 13 61 11 7 -3
20 2 31 10 17 14 16 14 -7 4 -24 -11 -24 -10 -5 5 11 8 25 13 31 11 6 -2 27
12 45 31 19 20 28 33 22 29 -16 -9 -16 -5 -3 30 14 35 -4 89 -36 110 -69 46
-140 36 -319 -46 -168 -76 -275 -102 -275 -65 0 21 35 41 111 64 36 12 94 39
130 61 59 37 58 31 -2 -13 -13 -10 -17 -15 -9 -11 68 32 95 82 69 132 -12 21
-18 22 -140 22 -70 0 -130 -4 -133 -9z"/>
<path d="M1969 2897 c6 -8 9 -16 6 -19 -3 -3 30 -37 74 -77 44 -39 100 -99
125 -132 25 -34 46 -58 46 -54 0 19 -80 113 -158 186 -48 45 -64 63 -35 40 90
-73 179 -177 223 -262 23 -44 39 -87 36 -95 -3 -8 -2 -13 3 -10 5 3 19 -18 31
-47 12 -28 35 -74 52 -101 16 -26 27 -51 23 -54 -7 -8 46 -62 56 -56 4 2 23
-5 41 -16 18 -11 28 -20 23 -20 -6 0 -22 7 -35 16 l-25 16 22 -20 c18 -16 32
-19 70 -15 58 6 87 23 113 66 38 61 16 146 -64 250 -38 50 -44 63 -23 51 6 -4
-8 15 -33 42 -24 27 -49 51 -55 53 -5 2 10 -18 35 -45 35 -38 -83 68 -150 135
-29 29 23 -11 63 -48 20 -19 37 -32 37 -28 0 4 -16 22 -35 39 -56 48 -90 74
-81 60 11 -19 2 -15 -55 24 -30 20 -53 41 -51 46 1 5 -2 7 -7 4 -5 -3 -39 8
-75 24 -56 26 -169 59 -200 60 -5 0 -3 -6 3 -13z"/>
<path d="M1210 2350 c-30 -5 -58 -6 -62 -3 -24 14 -231 -171 -287 -257 l-22
-35 28 35 c84 105 246 250 279 250 5 0 -14 -15 -42 -34 -72 -48 -157 -128
-206 -194 -24 -32 -47 -59 -53 -61 -17 -5 -35 -23 -35 -34 0 -6 7 -2 15 9 28
37 15 5 -26 -62 -38 -62 -79 -160 -79 -189 0 -6 7 -20 16 -31 8 -10 13 -14 10
-7 -16 31 243 217 276 197 6 -4 8 -3 5 3 -4 6 23 28 60 49 76 44 196 152 221
198 15 29 25 127 12 123 -10 -3 -60 40 -53 47 3 3 4 5 2 5 -2 -1 -29 -5 -59
-9z"/>
<path d="M413 1788 c1 -6 -4 -13 -12 -16 -9 -3 -11 0 -6 9 5 8 -1 5 -13 -5
-23 -20 -30 -32 -12 -21 15 9 12 -7 -5 -29 -21 -28 -18 -79 6 -112 l21 -29
-26 28 c-28 30 -34 72 -15 110 10 21 10 21 -5 3 -28 -35 -20 -82 20 -124 20
-20 33 -32 30 -26 -4 8 10 10 44 6 46 -4 52 -2 85 31 43 43 50 96 19 145 -8
12 -12 22 -9 22 3 0 14 -15 25 -32 11 -18 20 -27 20 -21 0 7 -14 27 -31 45
-17 18 -28 28 -25 21 6 -10 -39 -10 -96 2 -10 1 -16 -2 -15 -7z"/>
<path d="M897 1769 c-9 -6 -15 -14 -12 -18 5 -9 -24 -38 -34 -34 -3 2 -6 -3
-6 -10 0 -6 -11 -39 -24 -72 -20 -51 -25 -84 -30 -218 -6 -151 -7 -160 -30
-178 -13 -10 -30 -19 -38 -19 -21 0 -61 45 -68 77 -4 15 -13 48 -21 73 -9 25
-17 53 -18 63 -3 23 -40 60 -63 63 -10 2 -37 6 -61 10 -34 5 -47 3 -65 -12
l-22 -19 19 23 c21 24 58 28 103 11 21 -8 25 -8 16 2 -6 6 -31 13 -55 16 -68
8 -93 -32 -91 -147 2 -105 8 -188 14 -173 4 11 10 0 18 -31 6 -26 8 -52 5 -58
-4 -6 -3 -8 2 -5 5 3 20 -25 33 -61 13 -37 41 -102 62 -144 38 -75 50 -109 28
-78 -9 13 -10 13 -6 0 2 -8 9 -14 15 -13 13 3 75 -105 67 -117 -3 -5 0 -12 6
-16 8 -5 9 -3 4 7 -17 28 5 2 59 -74 58 -81 65 -93 44 -81 -7 4 -4 -2 6 -14
20 -23 32 -30 21 -12 -10 16 4 12 36 -12 57 -42 189 -27 172 20 -4 8 -2 13 3
9 15 -9 0 114 -17 143 -8 14 -14 30 -14 36 0 13 -65 92 -65 79 0 -5 15 -25 32
-45 22 -23 16 -20 -15 10 -44 41 -63 70 -34 54 6 -4 3 2 -7 14 -23 26 -34 30
-15 5 12 -16 12 -17 -2 -6 -9 7 -24 31 -34 53 -39 88 23 135 84 64 18 -20 30
-42 27 -50 -7 -17 59 -74 85 -74 26 0 89 62 89 87 -1 12 -5 7 -14 -13 -15 -35
-51 -64 -78 -64 -10 0 -32 14 -50 31 l-33 31 33 -26 c42 -32 66 -33 97 -1 44
43 38 105 -23 250 -42 102 -46 117 -46 195 0 63 8 114 31 200 48 181 49 183
13 223 -27 32 -34 34 -85 33 -35 -1 -49 2 -39 7 9 5 29 7 44 5 16 -2 27 -1 24
4 -7 11 -55 10 -77 -3z"/>
<path d="M220 1557 c0 -13 -13 -64 -29 -113 -69 -210 -75 -240 -75 -394 -1
-134 2 -151 28 -228 15 -46 43 -106 62 -133 36 -54 40 -64 24 -54 -16 10 -11
-1 7 -16 11 -10 14 -10 9 -1 -10 17 9 15 24 -3 7 -8 9 -15 5 -15 -4 0 -2 -7 5
-15 7 -8 17 -15 23 -15 6 0 2 7 -9 16 -18 14 -18 15 4 4 12 -6 48 -10 78 -8
43 2 60 8 77 27 12 13 16 21 8 16 -10 -6 -11 -2 -5 16 5 13 8 51 8 84 -1 50
-11 80 -58 184 -37 81 -54 131 -51 145 5 15 4 17 -3 8 -11 -16 -18 1 -58 132
-34 113 -54 227 -54 312 0 43 -4 74 -10 74 -5 0 -10 -10 -10 -23z"/>
<path d="M1383 773 c-16 -13 -16 -13 4 -4 33 17 42 12 10 -5 -15 -8 -31 -13
-36 -10 -4 3 -23 -11 -42 -31 -19 -20 -28 -33 -21 -29 16 9 15 6 -8 -45 -24
-53 -25 -90 -5 -130 9 -16 13 -33 11 -38 -3 -5 4 -17 16 -27 12 -11 18 -13 13
-5 -5 9 -3 12 6 9 8 -3 13 -10 12 -16 -2 -7 4 -9 14 -5 9 4 14 2 11 -3 -4 -5
25 -9 67 -9 40 0 71 4 68 8 -3 5 2 7 10 5 9 -2 16 2 17 7 1 6 17 27 36 47 60
67 67 149 18 224 l-24 39 31 -35 c17 -19 26 -26 21 -14 -13 24 -40 48 -56 49
-6 1 -22 6 -36 12 -44 18 -118 22 -137 6z"/>
<path d="M500 416 c0 -25 67 -93 131 -133 32 -19 56 -40 52 -46 -3 -5 -1 -7 4
-4 6 4 85 -29 175 -73 91 -44 212 -96 269 -115 57 -19 88 -33 69 -30 -25 4
-29 3 -15 -4 29 -12 401 -11 384 1 -10 7 -8 8 9 5 12 -3 20 -2 17 3 -3 4 2 11
11 14 22 9 26 8 18 -5 -13 -22 31 9 66 47 19 20 29 33 21 29 -11 -7 -13 -4 -5
11 5 10 9 42 9 71 0 29 3 46 8 40 6 -8 7 -7 4 3 -2 8 -10 15 -17 15 -7 0 -15
6 -18 14 -3 9 0 11 9 6 8 -5 3 4 -10 18 -25 27 -37 35 -26 17 9 -15 0 -12 -37
9 -49 29 -98 34 -179 21 -59 -10 -73 -10 -80 1 -5 8 -7 19 -5 25 7 18 -39 55
-71 59 -15 2 -50 6 -78 10 -38 5 -79 0 -170 -20 -181 -42 -318 -36 -522 21
-17 5 -23 2 -23 -10z"/>
</g>
</svg>
